0
SECTION
2
HEADER
9
$INSUNITS
70
4
9
$ACADVER
1
AC1014
9
$HANDSEED
5
FFFF
0
ENDSEC
0
SECTION
2
TABLES
0
TABLE
2
VPORT
5
8
100
AcDbSymbolTable
0
ENDTAB
0
TABLE
2
LTYPE
5
5
100
AcDbSymbolTable
0
LTYPE
5
14
100
AcDbSymbolTableRecord
100
AcDbLinetypeTableRecord
2
BYBLOCK
70
0
0
LTYPE
5
15
100
AcDbSymbolTableRecord
100
AcDbLinetypeTableRecord
2
BYLAYER
70
0
0
ENDTAB
0
TABLE
2
LAYER
5
2
100
AcDbSymbolTable
70
2
0
LAYER
5
50
100
AcDbSymbolTableRecord
100
AcDbLayerTableRecord
2
0
70
0
6
CONTINUOUS
0
ENDTAB
0
TABLE
2
STYLE
5
3
100
AcDbSymbolTable
70
1
0
STYLE
5
11
100
AcDbSymbolTableRecord
100
AcDbTextStyleTableRecord
2
STANDARD
70
0
0
ENDTAB
0
TABLE
2
VIEW
5
6
100
AcDbSymbolTable
70
0
0
ENDTAB
0
TABLE
2
UCS
5
7
100
AcDbSymbolTable
70
0
0
ENDTAB
0
TABLE
2
APPID
5
9
100
AcDbSymbolTable
70
2
0
APPID
5
12
100
AcDbSymbolTableRecord
100
AcDbRegAppTableRecord
2
ACAD
70
0
0
ENDTAB
0
TABLE
2
DIMSTYLE
5
A
100
AcDbSymbolTable
70
1
0
ENDTAB
0
TABLE
2
BLOCK_RECORD
5
1
100
AcDbSymbolTable
70
1
0
BLOCK_RECORD
5
1F
100
AcDbSymbolTableRecord
100
AcDbBlockTableRecord
2
*MODEL_SPACE
0
BLOCK_RECORD
5
1B
100
AcDbSymbolTableRecord
100
AcDbBlockTableRecord
2
*PAPER_SPACE
0
ENDTAB
0
ENDSEC
0
SECTION
2
BLOCKS
0
BLOCK
5
20
100
AcDbEntity
100
AcDbBlockBegin
2
*MODEL_SPACE
0
ENDBLK
5
21
100
AcDbEntity
100
AcDbBlockEnd
0
BLOCK
5
1C
100
AcDbEntity
100
AcDbBlockBegin
2
*PAPER_SPACE
0
ENDBLK
5
1D
100
AcDbEntity
100
AcDbBlockEnd
0
ENDSEC
0
SECTION
2
ENTITIES
0
LINE
5
100
100
AcDbEntity
8
0
100
AcDbLine
10
9.9999999999999929
20
9.6999999999999957
30
0
11
-9.999999999999984
21
9.6999999999999957
31
0
0
LINE
5
101
100
AcDbEntity
8
0
100
AcDbLine
10
-9.999999999999984
20
9.6999999999999957
30
0
11
-10.000000000000004
21
-9.7000000000000064
31
0
0
LINE
5
102
100
AcDbEntity
8
0
100
AcDbLine
10
-10.000000000000004
20
-9.7000000000000064
30
0
11
9.9999999999999929
21
-9.7000000000000064
31
0
0
LINE
5
103
100
AcDbEntity
8
0
100
AcDbLine
10
9.9999999999999929
20
-9.7000000000000064
30
0
11
9.9999999999999929
21
9.6999999999999957
31
0
0
LINE
5
104
100
AcDbEntity
8
0
100
AcDbLine
10
9.9999999999999929
20
9.6999999999999957
30
0
11
-10.000000000000004
21
-9.7000000000000064
31
0
0
LINE
5
105
100
AcDbEntity
8
0
100
AcDbLine
10
-9.999999999999984
20
9.6999999999999957
30
0
11
9.9999999999999929
21
-9.7000000000000064
31
0
0
LWPOLYLINE
5
106
100
AcDbEntity
8
0
100
AcDbPolyline
90
4
70
1
43
0.0
10
2.7200000000000113
20
3.6999999999999913
10
9.9999999999999929
20
3.6999999999999966
10
6.6799999999999962
20
0.37999999999999412
10
2.7200000000000095
20
0.37999999999999146
0
LWPOLYLINE
5
107
100
AcDbEntity
8
0
100
AcDbPolyline
90
4
70
1
43
0.0
10
2.7200000000000051
20
-9.2178956383764827
42
-1.379924496762944
10
2.7200000000000153
20
9.2178956383764703
10
2.7200000000000122
20
4.3554104284211821
42
1.9102677317636736
10
2.7200000000000073
20
-4.3554104284211963
0
LINE
5
108
100
AcDbEntity
8
0
100
AcDbLine
10
9.9999999999999929
20
-4.5500618907546552e-15
30
0
11
-9.9999999999999858
21
2.2836741891721851e-15
31
0
0
LINE
5
109
100
AcDbEntity
8
0
100
AcDbLine
10
9.9999999999999929
20
3.6999999999999966
30
0
11
89.559972936388149
21
3.6999999999999966
31
0
0
LINE
5
110
100
AcDbEntity
8
0
100
AcDbLine
10
9.9999999999999929
20
3.6999999999999966
30
0
11
6.6799999999999962
21
0.37999999999999412
31
0
0
LWPOLYLINE
5
111
100
AcDbEntity
8
0
100
AcDbPolyline
90
4
70
1
43
0.0
10
2.7200000000000086
20
-3.6999999999999957
10
2.7200000000000157
20
-0.38000000000000378
10
6.6799999999999944
20
-0.38000000000000089
10
9.9999999999999929
20
-3.6999999999999948
0
LWPOLYLINE
5
112
100
AcDbEntity
8
0
100
AcDbPolyline
90
8
70
1
43
0.0
10
-9.999999999999984
20
12.70000000000001
10
9.9999999999999893
20
12.70000000000001
42
-0.4142135623730856
10
12.999999999999986
20
9.7000000000000046
10
12.999999999999989
20
-9.7000000000000082
42
-0.41421356237309026
10
9.999999999999984
20
-12.700000000000006
10
-9.999999999999984
20
-12.700000000000005
42
-0.41421356237308138
10
-12.999999999999986
20
-9.7000000000000046
10
-12.999999999999986
20
9.7000000000000082
42
-0.41421356237309903
0
LINE
5
113
100
AcDbEntity
8
0
100
AcDbLine
10
12.999999999999986
20
12.70000000000001
30
0
11
-12.999999999999986
21
-12.700000000000006
31
0
0
LINE
5
114
100
AcDbEntity
8
0
100
AcDbLine
10
-12.999999999999986
20
12.70000000000001
30
0
11
12.999999999999986
21
-12.700000000000006
31
0
0
LWPOLYLINE
5
115
100
AcDbEntity
8
0
100
AcDbPolyline
90
4
70
1
43
0.0
10
6.6799999999999962
20
0.37999999999999423
10
9.9999999999999929
20
3.6999999999999966
10
2.7200000000000117
20
3.6999999999999913
10
2.7200000000000095
20
0.37999999999999134
0
LWPOLYLINE
5
116
100
AcDbEntity
8
0
100
AcDbPolyline
90
4
70
1
43
0.0
10
9.9999999999999929
20
-3.6999999999999948
10
2.7200000000000086
20
-3.6999999999999957
10
2.7200000000000157
20
-0.38000000000000378
10
6.6799999999999944
20
-0.38000000000000089
0
LWPOLYLINE
5
117
100
AcDbEntity
8
0
100
AcDbPolyline
90
4
70
1
43
0.0
10
2.7199999999999971
20
-9.2178956383764863
42
-1.3799244967629429
10
2.7200000000000153
20
9.2178956383764721
10
2.7200000000000122
20
4.3554104284211821
42
1.9102677317636736
10
2.7200000000000073
20
-4.3554104284211963
0
ENDSEC
0
SECTION
2
OBJECTS
0
DICTIONARY
5
C
100
AcDbDictionary
3
ACAD_GROUP
350
D
3
ACAD_MLINESTYLE
350
17
0
DICTIONARY
5
D
100
AcDbDictionary
0
DICTIONARY
5
1A
330
C
100
AcDbDictionary
0
DICTIONARY
5
17
100
AcDbDictionary
0
ENDSEC
0
EOF
